{
  "accessors": [
    {
      "bufferView": 0,
      "byteOffset": 0,
      "componentType": 5123,
      "count": 5244,
      "max": [
        2339.0
      ],
      "min": [
        0.0
      ],
      "name": "buffer-0-group-0-mesh-0-indices",
      "type": "SCALAR"
    },
    {
      "bufferView": 1,
      "byteOffset": 0,
      "componentType": 5126,
      "count": 2340,
      "max": [
        0.6873739957809448,
        1.8058029413223267,
        1.1708990335464478
      ],
      "min": [
        -0.6575419902801514,
        -0.006953999865800142,
        0.08709400147199631
      ],
      "name": "buffer-0-group-0-mesh-0-position",
      "type": "VEC3"
    },
    {
      "bufferView": 1,
      "byteOffset": 28080,
      "componentType": 5126,
      "count": 2340,
      "max": [
        0.9994997978210449,
        0.9999218583106995,
        0.9999502897262573
      ],
      "min": [
        -0.9999062418937683,
        -0.9998708963394165,
        -0.9997249245643616
      ],
      "name": "buffer-0-group-0-mesh-0-normal",
      "type": "VEC3"
    },
    {
      "bufferView": 2,
      "byteOffset": 0,
      "componentType": 5126,
      "count": 2340,
      "max": [
        0.9012830257415771,
        -0.05226200073957443
      ],
      "min": [
        0.01309600006788969,
        -0.9430630207061768
      ],
      "name": "buffer-0-group-0-mesh-0-texcoord",
      "type": "VEC2"
    },
    {
      "bufferView": 0,
      "byteOffset": 10488,
      "componentType": 5123,
      "count": 308898,
      "max": [
        65533.0
      ],
      "min": [
        0.0
      ],
      "name": "buffer-0-group-1-mesh-0-indices",
      "type": "SCALAR"
    },
    {
      "bufferView": 1,
      "byteOffset": 56160,
      "componentType": 5126,
      "count": 65534,
      "max": [
        0.6727219820022583,
        1.8051090240478516,
        1.1433759927749634
      ],
      "min": [
        -0.631397008895874,
        -0.11382599920034409,
        -0.044415999203920364
      ],
      "name": "buffer-0-group-1-mesh-0-position",
      "type": "VEC3"
    },
    {
      "bufferView": 1,
      "byteOffset": 842568,
      "componentType": 5126,
      "count": 65534,
      "max": [
        0.9999987483024597,
        0.9999907612800598,
        0.9999958872795105
      ],
      "min": [
        -0.9999966621398926,
        -0.9999831914901733,
        -0.9999375343322754
      ],
      "name": "buffer-0-group-1-mesh-0-normal",
      "type": "VEC3"
    },
    {
      "bufferView": 2,
      "byteOffset": 18720,
      "componentType": 5126,
      "count": 65534,
      "max": [
        0.7220169901847839,
        -0.01558000035583973
      ],
      "min": [
        0.27798300981521606,
        -0.45961400866508484
      ],
      "name": "buffer-0-group-1-mesh-0-texcoord",
      "type": "VEC2"
    },
    {
      "bufferView": 0,
      "byteOffset": 628284,
      "componentType": 5123,
      "count": 90666,
      "max": [
        19378.0
      ],
      "min": [
        0.0
      ],
      "name": "buffer-0-group-1-mesh-1-indices",
      "type": "SCALAR"
    },
    {
      "bufferView": 1,
      "byteOffset": 1628976,
      "componentType": 5126,
      "count": 19379,
      "max": [
        0.6324849724769592,
        1.240617036819458,
        1.1807349920272827
      ],
      "min": [
        -0.6223189830780029,
        -0.060975998640060425,
        -0.02611899934709072
      ],
      "name": "buffer-0-group-1-mesh-1-position",
      "type": "VEC3"
    },
    {
      "bufferView": 1,
      "byteOffset": 1861524,
      "componentType": 5126,
      "count": 19379,
      "max": [
        0.9998947978019714,
        0.9994428753852844,
        0.999971330165863
      ],
      "min": [
        -0.9999889731407166,
        -0.9999617338180542,
        -0.9970702528953552
      ],
      "name": "buffer-0-group-1-mesh-1-normal",
      "type": "VEC3"
    },
    {
      "bufferView": 2,
      "byteOffset": 542992,
      "componentType": 5126,
      "count": 19379,
      "max": [
        0.70831698179245,
        -0.02780899964272976
      ],
      "min": [
        0.28107398748397827,
        -0.3289929926395416
      ],
      "name": "buffer-0-group-1-mesh-1-texcoord",
      "type": "VEC2"
    },
    {
      "bufferView": 0,
      "byteOffset": 809616,
      "componentType": 5123,
      "count": 98250,
      "max": [
        65533.0
      ],
      "min": [
        0.0
      ],
      "name": "buffer-0-group-2-mesh-0-indices",
      "type": "SCALAR"
    },
    {
      "bufferView": 1,
      "byteOffset": 2094072,
      "componentType": 5126,
      "count": 65534,
      "max": [
        0.6721349954605103,
        1.8040430545806885,
        1.1805009841918945
      ],
      "min": [
        -0.6312749981880188,
        -0.11363299936056137,
        -0.044390998780727386
      ],
      "name": "buffer-0-group-2-mesh-0-position",
      "type": "VEC3"
    },
    {
      "bufferView": 1,
      "byteOffset": 2880480,
      "componentType": 5126,
      "count": 65534,
      "max": [
        0.9999987483024597,
        0.9999907612800598,
        0.9999886751174927
      ],
      "min": [
        -0.9999966621398926,
        -0.9999831914901733,
        -0.9999375343322754
      ],
      "name": "buffer-0-group-2-mesh-0-normal",
      "type": "VEC3"
    },
    {
      "bufferView": 2,
      "byteOffset": 698024,
      "componentType": 5126,
      "count": 65534,
      "max": [
        0.9886599779129028,
        -0.011621000245213509
      ],
      "min": [
        0.011398999951779842,
        -1.0600700378417969
      ],
      "name": "buffer-0-group-2-mesh-0-texcoord",
      "type": "VEC2"
    },
    {
      "bufferView": 0,
      "byteOffset": 1006116,
      "componentType": 5123,
      "count": 1590,
      "max": [
        1059.0
      ],
      "min": [
        0.0
      ],
      "name": "buffer-0-group-2-mesh-1-indices",
      "type": "SCALAR"
    },
    {
      "bufferView": 1,
      "byteOffset": 3666888,
      "componentType": 5126,
      "count": 1060,
      "max": [
        -0.2637630105018616,
        0.8832060098648071,
        0.5502679944038391
      ],
      "min": [
        -0.4751099944114685,
        0.5268369913101196,
        0.2150299996137619
      ],
      "name": "buffer-0-group-2-mesh-1-position",
      "type": "VEC3"
    },
    {
      "bufferView": 1,
      "byteOffset": 3679608,
      "componentType": 5126,
      "count": 1060,
      "max": [
        0.9986534118652344,
        0.8986477255821228,
        0.9167198538780212
      ],
      "min": [
        -0.9901754260063171,
        -0.9183078408241272,
        -0.8444839119911194
      ],
      "name": "buffer-0-group-2-mesh-1-normal",
      "type": "VEC3"
    },
    {
      "bufferView": 2,
      "byteOffset": 1222296,
      "componentType": 5126,
      "count": 1060,
      "max": [
        0.3752399981021881,
        -0.7240700125694275
      ],
      "min": [
        0.21397900581359863,
        -0.9427300095558167
      ],
      "name": "buffer-0-group-2-mesh-1-texcoord",
      "type": "VEC2"
    }
  ],
  "asset": {
    "generator": "Obj2GltfConverter",
    "version": "2.0"
  },
  "bufferViews": [
    {
      "buffer": 0,
      "byteLength": 1009296,
      "byteOffset": 0,
      "name": "buffer-0-bufferview-ushort",
      "target": 34963
    },
    {
      "buffer": 0,
      "byteLength": 3692328,
      "byteOffset": 1009296,
      "byteStride": 12,
      "name": "buffer-0-bufferview-vec3",
      "target": 34962
    },
    {
      "buffer": 0,
      "byteLength": 1230776,
      "byteOffset": 4701624,
      "byteStride": 8,
      "name": "buffer-0-bufferview-vec2",
      "target": 34962
    }
  ],
  "buffers": [
    {
      "byteLength": 5932400,
      "name": "buffer-0",
      "uri": "meditationladyfloatybits.bin"
    }
  ],
  "images": [
    {
      "mimeType": "image/png",
      "name": "Material.001-diffuse-image",
      "uri": "blucygrnwht.png"
    }
  ],
  "materials": [
    {
      "alphaMode": "OPAQUE",
      "doubleSided": true,
      "name": "Material.003",
      "pbrMetallicRoughness": {
        "baseColorFactor": [
          0.0,
          0.0,
          0.0,
          1.0
        ],
        "metallicFactor": 0.0,
        "roughnessFactor": 0.7448017359246658
      }
    },
    {
      "alphaMode": "OPAQUE",
      "doubleSided": true,
      "name": "Material.001",
      "pbrMetallicRoughness": {
        "baseColorFactor": [
          0.64,
          0.64,
          0.64,
          1.0
        ],
        "baseColorTexture": {
          "index": 0,
          "texCoord": 0
        },
        "metallicFactor": 0.0,
        "roughnessFactor": 0.7448017359246658
      }
    },
    {
      "alphaMode": "OPAQUE",
      "doubleSided": true,
      "name": "Material.002",
      "pbrMetallicRoughness": {
        "baseColorFactor": [
          0.0,
          0.0,
          0.0,
          1.0
        ],
        "metallicFactor": 0.0,
        "roughnessFactor": 0.7448017359246658
      }
    }
  ],
  "meshes": [
    {
      "name": "buffer-0-mesh-0",
      "primitives": [
        {
          "attributes": {
            "POSITION": 1,
            "NORMAL": 2,
            "TEXCOORD_0": 3
          },
          "indices": 0,
          "material": 0,
          "mode": 4
        },
        {
          "attributes": {
            "POSITION": 5,
            "NORMAL": 6,
            "TEXCOORD_0": 7
          },
          "indices": 4,
          "material": 1,
          "mode": 4
        },
        {
          "attributes": {
            "POSITION": 9,
            "NORMAL": 10,
            "TEXCOORD_0": 11
          },
          "indices": 8,
          "material": 1,
          "mode": 4
        },
        {
          "attributes": {
            "POSITION": 13,
            "NORMAL": 14,
            "TEXCOORD_0": 15
          },
          "indices": 12,
          "material": 2,
          "mode": 4
        },
        {
          "attributes": {
            "POSITION": 17,
            "NORMAL": 18,
            "TEXCOORD_0": 19
          },
          "indices": 16,
          "material": 2,
          "mode": 4
        }
      ]
    }
  ],
  "nodes": [
    {
      "mesh": 0,
      "name": "node-0"
    }
  ],
  "samplers": [
    {
      "name": "Material.001-diffuse-sampler",
      "wrapS": 10497,
      "wrapT": 10497
    }
  ],
  "scenes": [
    {
      "name": "scene-0",
      "nodes": [
        0
      ]
    }
  ],
  "textures": [
    {
      "name": "Material.001-diffuse-texture",
      "sampler": 0,
      "source": 0
    }
  ]
}